<svg xmlns="http://www.w3.org/2000/svg" xmlns:xlink="http://www.w3.org/1999/xlink" width="1080" zoomAndPan="magnify" viewBox="0 0 810 809.999993" height="1080" preserveAspectRatio="xMidYMid meet" version="1.0"><path style=" stroke:none;fill-rule:evenodd;fill:currentColor;fill-opacity:1;" d="M 308.570312 356.785156 C 388.457031 356.785156 453.214844 421.542969 453.214844 501.429688 L 453.214844 655.714844 C 453.214844 735.597656 388.457031 800.355469 308.570312 800.355469 L 154.285156 800.355469 C 74.402344 800.355469 9.644531 735.597656 9.644531 655.714844 L 9.644531 501.429688 C 9.644531 421.542969 74.402344 356.785156 154.285156 356.785156 Z M 154.285156 414.644531 C 106.355469 414.644531 67.5 453.5 67.5 501.429688 L 67.5 655.714844 C 67.5 703.644531 106.355469 742.5 154.285156 742.5 L 308.570312 742.5 C 356.5 742.5 395.355469 703.644531 395.355469 655.714844 L 395.355469 501.429688 C 395.355469 453.5 356.5 414.644531 308.570312 414.644531 Z M 694.285156 9.644531 C 752.867188 9.644531 800.355469 57.132812 800.355469 115.714844 L 800.355469 617.144531 C 800.355469 675.726562 752.867188 723.214844 694.285156 723.214844 L 540 723.214844 C 524.023438 723.214844 511.070312 710.261719 511.070312 694.285156 C 511.070312 678.308594 524.023438 665.355469 540 665.355469 L 694.285156 665.355469 C 720.914062 665.355469 742.5 643.773438 742.5 617.144531 L 742.5 115.714844 C 742.5 89.085938 720.914062 67.5 694.285156 67.5 L 231.429688 67.5 C 204.800781 67.5 183.214844 89.085938 183.214844 115.714844 L 183.214844 270 C 183.214844 285.976562 170.261719 298.929688 154.285156 298.929688 C 138.308594 298.929688 125.355469 285.976562 125.355469 270 L 125.355469 115.714844 C 125.355469 57.132812 172.847656 9.644531 231.429688 9.644531 Z M 271.429688 527.90625 C 282.726562 516.609375 301.039062 516.613281 312.339844 527.90625 C 323.636719 539.203125 323.632812 557.515625 312.339844 568.816406 L 235.269531 645.960938 C 223.980469 657.257812 205.664062 657.246094 194.363281 645.960938 L 148.03125 599.667969 C 136.730469 588.371094 136.703125 570.058594 147.996094 558.757812 C 159.285156 547.457031 177.601562 547.46875 188.902344 558.757812 L 214.78125 584.597656 Z M 617.144531 511.070312 C 633.117188 511.070312 646.070312 524.023438 646.070312 540 C 646.070312 555.976562 633.117188 568.929688 617.144531 568.929688 L 540 568.929688 C 524.023438 568.929688 511.070312 555.976562 511.070312 540 C 511.070312 524.023438 524.023438 511.070312 540 511.070312 Z M 617.144531 395.355469 C 633.117188 395.355469 646.070312 408.308594 646.070312 424.285156 C 646.070312 440.261719 633.117188 453.214844 617.144531 453.214844 L 540 453.214844 C 524.023438 453.214844 511.070312 440.261719 511.070312 424.285156 C 511.070312 408.308594 524.023438 395.355469 540 395.355469 Z M 617.144531 163.929688 C 618.894531 163.929688 620.601562 164.121094 622.265625 164.417969 C 622.4375 164.449219 622.621094 164.457031 622.792969 164.492188 C 623.554688 164.644531 624.273438 164.925781 625.015625 165.132812 C 626.074219 165.433594 627.152344 165.691406 628.179688 166.113281 C 629.089844 166.488281 629.917969 167.007812 630.777344 167.46875 C 633.203125 168.773438 635.550781 170.355469 637.597656 172.402344 C 639.464844 174.269531 640.902344 176.394531 642.152344 178.582031 C 642.753906 179.628906 643.382812 180.660156 643.851562 181.78125 C 644.648438 183.710938 645.21875 185.707031 645.582031 187.734375 C 645.878906 189.398438 646.070312 191.105469 646.070312 192.855469 L 646.070312 270 C 646.070312 285.976562 633.117188 298.929688 617.144531 298.929688 C 601.167969 298.929688 588.214844 285.976562 588.214844 270 L 588.214844 262.691406 L 521.957031 329.023438 C 520.222656 330.761719 518.246094 332.117188 516.230469 333.320312 C 515.46875 333.773438 514.691406 334.179688 513.894531 334.5625 C 512.90625 335.035156 511.914062 335.449219 510.882812 335.804688 C 510.199219 336.042969 509.507812 336.222656 508.8125 336.40625 C 507.746094 336.6875 506.695312 336.929688 505.609375 337.085938 C 504.785156 337.207031 503.957031 337.261719 503.121094 337.3125 C 502.214844 337.363281 501.320312 337.421875 500.410156 337.386719 C 499.375 337.351562 498.355469 337.234375 497.324219 337.085938 C 496.5 336.964844 495.683594 336.824219 494.875 336.632812 C 493.90625 336.410156 492.957031 336.132812 492.011719 335.804688 C 491.167969 335.511719 490.34375 335.199219 489.527344 334.824219 C 487.382812 333.851562 485.269531 332.710938 483.347656 331.171875 L 407.109375 270.1875 L 367.597656 309.738281 C 356.300781 321.035156 337.988281 321.035156 326.691406 309.738281 C 315.390625 298.441406 315.390625 280.128906 326.691406 268.832031 L 384.058594 211.425781 C 384.847656 210.597656 385.675781 209.808594 386.542969 209.09375 C 387.6875 208.144531 388.949219 207.386719 390.195312 206.644531 C 390.960938 206.1875 391.734375 205.78125 392.535156 205.402344 C 393.476562 204.949219 394.417969 204.539062 395.394531 204.195312 C 396.175781 203.921875 396.96875 203.722656 397.769531 203.515625 C 398.753906 203.261719 399.738281 203.027344 400.742188 202.875 C 401.554688 202.753906 402.375 202.703125 403.191406 202.652344 C 404.234375 202.585938 405.273438 202.566406 406.320312 202.613281 C 407.125 202.648438 407.921875 202.734375 408.730469 202.839844 C 409.753906 202.972656 410.769531 203.125 411.78125 203.367188 C 412.582031 203.558594 413.363281 203.816406 414.152344 204.082031 C 415.152344 204.414062 416.128906 204.804688 417.09375 205.25 C 419.167969 206.210938 421.210938 207.335938 423.082031 208.828125 L 499.28125 269.8125 L 547.308594 221.785156 L 540 221.785156 C 524.023438 221.785156 511.070312 208.832031 511.070312 192.855469 C 511.070312 176.878906 524.023438 163.929688 540 163.929688 Z M 617.144531 163.929688 " fill-opacity="0.9" fill-rule="nonzero"/></svg>